<svg width="46" height="46" viewBox="0 0 46 46" fill="none" xmlns="http://www.w3.org/2000/svg">
<path d="M36.4167 0H9.58333C4.29142 0 0 4.29142 0 9.58333V36.4167C0 41.7086 4.29142 46 9.58333 46H36.4167C41.7105 46 46 41.7086 46 36.4167V9.58333C46 4.29142 41.7105 0 36.4167 0ZM30.6667 13.4167H26.979C25.8002 13.4167 24.9167 13.8997 24.9167 15.1206V17.25H30.6667L30.2105 23H24.9167V38.3333H19.1667V23H15.3333V17.25H19.1667V13.5642C19.1667 9.68875 21.206 7.66667 25.8003 7.66667H30.6667V13.4167Z" fill="white"/>
</svg>
