<svg width="46" height="46" viewBox="0 0 46 46" fill="none" xmlns="http://www.w3.org/2000/svg">
<path d="M29.1966 10.5187C27.5808 10.4458 27.094 10.4305 23 10.4305C18.906 10.4305 18.4211 10.4458 16.8053 10.5187C12.6462 10.7084 10.7084 12.6788 10.5206 16.8034C10.4458 18.4211 10.4286 18.906 10.4286 23C10.4286 27.094 10.4458 27.5789 10.5187 29.1966C10.7084 33.3136 12.6385 35.2916 16.8034 35.4813C18.4192 35.5542 18.906 35.5714 23 35.5714C27.0959 35.5714 27.5808 35.5561 29.1966 35.4832C33.3557 35.2935 35.2916 33.3193 35.4813 29.1985C35.5542 27.5808 35.5695 27.0959 35.5695 23.0019C35.5695 18.9079 35.5542 18.423 35.4813 16.8072C35.2916 12.6807 33.3519 10.7084 29.1966 10.5187ZM23 30.8737C18.6511 30.8737 15.1263 27.3489 15.1263 23C15.1263 18.6511 18.653 15.1263 23 15.1263C27.347 15.1263 30.8737 18.6511 30.8737 23C30.8737 27.3489 27.3489 30.8737 23 30.8737ZM31.1861 16.6558C30.1702 16.6558 29.3461 15.8317 29.3461 14.8158C29.3461 13.8 30.1702 12.9758 31.1861 12.9758C32.2019 12.9758 33.0261 13.8 33.0261 14.8158C33.0261 15.8317 32.2019 16.6558 31.1861 16.6558ZM28.1117 23C28.1117 25.8232 25.8232 28.1117 23 28.1117C20.1768 28.1117 17.8883 25.8232 17.8883 23C17.8883 20.1768 20.1768 17.8883 23 17.8883C25.8232 17.8883 28.1117 20.1768 28.1117 23ZM36.4167 0H9.58333C4.29142 0 0 4.29142 0 9.58333V36.4167C0 41.7086 4.29142 46 9.58333 46H36.4167C41.7105 46 46 41.7086 46 36.4167V9.58333C46 4.29142 41.7105 0 36.4167 0V0ZM38.2413 29.3212C37.9883 34.8968 34.8853 37.9864 29.3231 38.2413C27.6862 38.3161 27.1649 38.3333 23 38.3333C18.8351 38.3333 18.3157 38.3161 16.6788 38.2413C11.1052 37.9864 8.0155 34.891 7.75867 29.3212C7.68392 27.6863 7.66667 27.1649 7.66667 23C7.66667 18.837 7.68392 18.3137 7.75867 16.6788C8.0155 11.1052 11.109 8.01358 16.6788 7.76058C18.3157 7.68392 18.8351 7.66667 23 7.66667C27.1649 7.66667 27.6862 7.68392 29.3231 7.75867C34.8967 8.01358 37.9922 11.1147 38.2413 16.6769C38.3161 18.3137 38.3333 18.837 38.3333 23C38.3333 27.1649 38.3161 27.6863 38.2413 29.3212Z" fill="white"/>
</svg>
